<?xml version="1.0" encoding="UTF-8"?>
<svg xmlns="http://www.w3.org/2000/svg" viewBox="-14 -16 64 64">
  <path d="M20.3307 4.70999C21.6686 4.70999 22.7532 3.67519 22.7532 2.3987C22.7532 1.1222 21.6686 0.0874023 20.3307 0.0874023C18.9928 0.0874023 17.9082 1.1222 17.9082 2.3987C17.9082 3.67519 18.9928 4.70999 20.3307 4.70999Z" fill="#ef4823"/>
  <path d="M20.3309 4.79813C18.951 4.79813 17.8164 3.71563 17.8164 2.39907C17.8164 1.08251 18.951 0 20.3309 0C21.7108 0 22.8454 1.08251 22.8454 2.39907C22.8454 3.71563 21.7108 4.79813 20.3309 4.79813ZM20.3309 0.146284C19.043 0.146284 17.9697 1.14102 17.9697 2.39907C17.9697 3.62785 19.0123 4.65185 20.3309 4.65185C21.6188 4.65185 22.6921 3.65711 22.6921 2.39907C22.6921 1.14102 21.6188 0.146284 20.3309 0.146284Z" fill="#ef4823"/>
  <path d="M7.35946 30.9257C3.31176 30.9257 0 27.7659 0 23.904C0 20.0421 3.31176 16.8823 7.35946 16.8823C11.4072 16.8823 14.7189 20.0421 14.7189 23.904C14.7189 27.7659 11.4072 30.9257 7.35946 30.9257ZM7.35946 17.9648C3.92504 17.9648 1.16525 20.6272 1.16525 23.8747C1.16525 27.1223 3.95571 29.7846 7.35946 29.7846C10.7632 29.7846 13.5537 27.1515 13.5537 23.904C13.5537 20.6565 10.7939 17.9648 7.35946 17.9648Z" fill="#ef4823"/>
  <path d="M28.6388 30.9257C24.5911 30.9257 21.2793 27.7659 21.2793 23.904C21.2793 20.0421 24.5911 16.8823 28.6388 16.8823C32.6865 16.8823 35.9982 20.0421 35.9982 23.904C35.9982 27.7659 32.6865 30.9257 28.6388 30.9257ZM28.6388 17.9648C25.2043 17.9648 22.4445 20.6272 22.4445 23.8747C22.4445 27.1223 25.235 29.7846 28.6388 29.7846C32.0425 29.7846 34.833 27.1223 34.833 23.8747C34.833 20.6272 32.0425 17.9648 28.6388 17.9648Z" fill="#ef4823"/>
  <path d="M26.2785 9.94836C26.0945 9.94836 25.9412 9.97762 25.7878 10.0361C24.04 10.0946 19.8696 8.86585 18.7964 7.46152C18.5204 7.08118 18.0604 6.81787 17.5391 6.81787C16.7112 6.81787 16.0059 7.46152 16.0059 8.28072C15.9446 9.74356 14.81 11.6453 12.6022 12.4937C11.8969 12.6985 11.4062 13.3129 11.4062 14.0443C11.4062 14.922 12.1729 15.6535 13.0928 15.6535C14.1354 15.829 16.6499 17.9355 16.9872 19.8079C16.9872 20.1298 17.0792 20.4223 17.2631 20.6564C17.3245 20.7442 17.3551 20.8027 17.4165 20.8612C18.0604 21.8559 17.9991 24.6353 16.6499 26.42C15.9446 27.0051 15.8526 27.9999 16.4352 28.702C17.0485 29.3749 18.0911 29.4627 18.827 28.9068C19.471 28.3802 19.5936 27.5025 19.1643 26.8296C18.643 25.3667 18.643 22.09 19.8083 20.9782C20.1456 20.6856 20.3603 20.276 20.3603 19.8079C20.3603 18.9302 19.5936 18.1988 18.6737 18.1988C18.643 18.1988 18.643 18.1988 18.6124 18.1988C17.2631 17.9355 15.0246 15.6535 14.7793 13.9273C14.9327 12.0549 16.1899 10.7968 17.9071 9.65579C18.0298 9.62653 18.1524 9.56802 18.2444 9.50951C21.0962 9.50951 23.4574 10.3872 24.9292 12.0549C25.1746 12.523 25.6959 12.8155 26.2478 12.8155C27.0758 12.8155 27.781 12.1719 27.781 11.3527C27.781 10.5335 27.1064 9.94836 26.2785 9.94836Z" fill="#ef4823"/>
</svg>
